<svg width="25" height="25" viewBox="0 0 25 25" fill="none" xmlns="http://www.w3.org/2000/svg">
<path fill-rule="evenodd" clip-rule="evenodd" d="M9.0206 1.45264C10.9422 -0.484213 14.0578 -0.484214 15.9794 1.45264L23.5588 9.09211C25.4804 11.029 25.4804 14.1692 23.5588 16.1061L16.65 23.0696C15.6962 23.7683 14.6844 22.8347 15.3073 21.9432L22.3184 14.8765C23.5412 13.644 23.5412 11.6456 22.3184 10.4131L14.7142 2.74862C13.4913 1.51608 11.5087 1.51608 10.2858 2.74862L2.68164 10.4131C1.4588 11.6456 1.4588 13.644 2.68164 14.8765L10.2858 22.541C10.325 22.5805 10.365 22.6188 10.4057 22.6557C11.7982 23.6709 11.6507 21.775 11.6507 21.775V14.6198C10.8759 14.3096 10.3 13.5794 10.2243 12.6852C10.1177 11.4252 11.0447 10.3167 12.2948 10.2092C13.5449 10.1018 14.6447 11.0361 14.7513 12.2962C14.8373 13.3122 14.2512 14.2298 13.3655 14.6033L13.3655 22.9398C13.3655 23.0525 13.3282 24.593 11.9116 24.9687C11.2484 25.069 10.8212 24.9017 10.6562 24.837C10.6357 24.829 10.6193 24.8226 10.6069 24.8184C10.6057 24.818 10.6044 24.8173 10.6029 24.8162C10.0276 24.5742 9.48868 24.2173 9.0206 23.7455L1.44122 16.1061C-0.480404 14.1692 -0.480406 11.029 1.44121 9.09211L9.0206 1.45264ZM11.6854 12.5596C11.6476 12.113 11.9762 11.72 12.4194 11.6819C12.8626 11.6438 13.2525 11.975 13.2903 12.4217C13.3281 12.8684 12.9994 13.2614 12.5562 13.2995C12.1131 13.3376 11.7232 13.0063 11.6854 12.5596Z" fill="#23BAFF"/>
<path d="M17.0402 11.2465C17.3122 12.2582 17.2462 13.3321 16.8522 14.3021C16.4582 15.2722 15.7583 16.0846 14.8606 16.6137C14.4429 16.8599 14.3024 17.4007 14.5466 17.8216C14.7908 18.2426 15.3273 18.3843 15.745 18.1381C16.975 17.4132 17.9339 16.3002 18.4737 14.9711C19.0134 13.642 19.104 12.1708 18.7313 10.7846C18.3586 9.39848 17.5435 8.17459 16.4118 7.302C15.2802 6.42941 13.8949 5.95668 12.4701 5.95683C11.0453 5.95699 9.66013 6.43002 8.52865 7.30286C7.39716 8.17569 6.58231 9.39977 6.20995 10.786C5.83759 12.1722 5.92844 13.6434 6.46848 14.9724C7.00852 16.3014 7.96769 17.4142 9.19783 18.1389C9.61553 18.3849 10.152 18.2431 10.3962 17.8221C10.6403 17.4011 10.4996 16.8603 10.0819 16.6142C9.18405 16.0853 8.48397 15.2731 8.0898 14.3031C7.69563 13.3331 7.62932 12.2593 7.9011 11.2475C8.17288 10.2357 8.76763 9.34227 9.59348 8.7052C10.4193 8.06813 11.4303 7.72287 12.4703 7.72276C13.5103 7.72265 14.5213 8.06768 15.3473 8.70457C16.1733 9.34147 16.7682 10.2348 17.0402 11.2465Z" fill="#23BAFF"/>
</svg>
